<svg xmlns="http://www.w3.org/2000/svg" xmlns:xlink="http://www.w3.org/1999/xlink" viewBox="0 0 350.69 203.42"><defs><style>.cls-1{fill:#0071bc;}.cls-2{fill:url(#linear-gradient);}.cls-3{font-size:38px;fill:#366;font-family:Folks-Heavy;font-weight:800;}.cls-4{letter-spacing:0.05em;}.cls-5{letter-spacing:-0.08em;}.cls-6{letter-spacing:0.06em;}.cls-7{letter-spacing:0em;}.cls-8{letter-spacing:0.07em;}.cls-9{letter-spacing:0.04em;}.cls-10{letter-spacing:0.03em;}.cls-11{letter-spacing:0.03em;}.cls-12{letter-spacing:0em;}</style><linearGradient id="linear-gradient" x1="275.62" y1="232.75" x2="511.21" y2="315.6" gradientTransform="matrix(1, -0.02, 0.02, 1, -5.88, 7.93)" gradientUnits="userSpaceOnUse"><stop offset="0.22" stop-color="#10d6f9"/><stop offset="0.43" stop-color="#10d6f9"/><stop offset="0.49" stop-color="#11d0f4"/><stop offset="0.58" stop-color="#13bee8"/><stop offset="0.68" stop-color="#17a2d2"/><stop offset="0.79" stop-color="#1d7bb6"/><stop offset="1" stop-color="#0d3375"/></linearGradient></defs><g id="graphics"><path class="cls-1" d="M527.32,198.33c-33.37-23.24-91.9-13.69-117.1,44.36-13.81,31.79-17.75,80.62-77,96.6,16.34-.14,105.92,9.49,137.68-42.45C493,260.68,473.06,200.83,527.32,198.33Z" transform="translate(-232.16 -186.6)"/><path class="cls-2" d="M276.57,253.94c53.83-77,163.13-83.72,192.76-15,28,64.87-27.39,115.5-136.09,100.33,46.29-2.34,93.41-25.65,78.17-70.78C398.3,229.7,340.8,217.74,276.57,253.94Z" transform="translate(-232.16 -186.6)"/><text class="cls-3" transform="translate(0 193.5)"><tspan class="cls-4">N</tspan><tspan class="cls-5" x="29.83" y="0">A</tspan><tspan class="cls-6" x="52.1" y="0">T</tspan><tspan class="cls-7" x="74.67" y="0">U</tspan><tspan class="cls-8" x="102.71" y="0">R</tspan><tspan x="128.4" y="0">E </tspan><tspan class="cls-9" x="158.57" y="0">S</tspan><tspan class="cls-10" x="182.13" y="0">O</tspan><tspan x="212.53" y="0">L</tspan><tspan class="cls-11" x="230.58" y="0">U</tspan><tspan class="cls-6" x="259.88" y="0">T</tspan><tspan x="282.45" y="0">I</tspan><tspan class="cls-10" x="292.52" y="0">O</tspan><tspan class="cls-12" x="322.92" y="0">N</tspan></text></g></svg>